HIERARCHY
ROOT Hips
{
	OFFSET -0.179506 -22.333345 2.821913
	CHANNELS 6 Xposition Yposition Zposition Zrotation Yrotation Xrotation 
	JOINT LeftUpLeg
	{
		OFFSET 6.951974 -9.140623 -0.681533
		CHANNELS 3 Zrotation Yrotation Xrotation
		JOINT LeftLeg
		{
			OFFSET 3.427654 -37.519855 -0.449580
			CHANNELS 3 Zrotation Yrotation Xrotation
			JOINT LeftFoot
			{
				OFFSET -1.359570 -39.796059 -4.369333
				CHANNELS 3 Zrotation Yrotation Xrotation
				JOINT LeftToe
				{
					OFFSET 2.635814 -5.579078 11.928840
					CHANNELS 3 Zrotation Yrotation Xrotation
					End Site
					{
						OFFSET 0.000000 0.000000 0.000000
					}
				}
			}
		}
	}
	JOINT RightUpLeg
	{
		OFFSET -6.767048 -9.052170 -0.431982
		CHANNELS 3 Zrotation Yrotation Xrotation
		JOINT RightLeg
		{
			OFFSET -3.829005 -38.256897 -0.885003
			CHANNELS 3 Zrotation Yrotation Xrotation
			JOINT RightFoot
			{
				OFFSET 1.577377 -39.841461 -4.231180
				CHANNELS 3 Zrotation Yrotation Xrotation
				JOINT RightToe
				{
					OFFSET -2.537174 -4.814398 12.334795
					CHANNELS 3 Zrotation Yrotation Xrotation
					End Site
					{
						OFFSET 0.000000 0.000000 0.000000
					}
				}
			}
		}
	}
	JOINT Spine
	{
		OFFSET -0.253288 10.896323 -2.669631
		CHANNELS 3 Zrotation Yrotation Xrotation
		JOINT Spine1
		{
			OFFSET 0.548704 13.518043 0.109247
			CHANNELS 3 Zrotation Yrotation Xrotation
			JOINT Spine2
			{
				OFFSET 0.145701 5.292222 2.542457
				CHANNELS 3 Zrotation Yrotation Xrotation
				JOINT Neck
				{
					OFFSET -0.277840 21.387037 -4.285703
					CHANNELS 3 Zrotation Yrotation Xrotation
					JOINT Head
					{
						OFFSET 0.515184 6.496960 5.134897
						CHANNELS 3 Zrotation Yrotation Xrotation
						End Site
						{
							OFFSET 0.000000 0.000000 0.000000
						}
					}
				}
				JOINT LeftShoulder
				{
					OFFSET 7.884473 12.174932 -3.408961
					CHANNELS 3 Zrotation Yrotation Xrotation
					JOINT LeftArm
					{
						OFFSET 9.097692 3.046888 -0.886815
						CHANNELS 3 Zrotation Yrotation Xrotation
						JOINT LeftForeArm
						{
							OFFSET 25.961220 -1.277207 -2.745643
							CHANNELS 3 Zrotation Yrotation Xrotation
							JOINT LeftHand
							{
								OFFSET 24.923361 0.898606 -0.117091
								CHANNELS 3 Zrotation Yrotation Xrotation
								End Site
								{
									OFFSET 0.000000 0.000000 0.000000
								}
							}
						}
					}
				}
				JOINT RightShoulder
				{
					OFFSET -8.175920 11.883285 -3.861528
					CHANNELS 3 Zrotation Yrotation Xrotation
					JOINT RightArm
					{
						OFFSET -9.601238 3.255117 -0.914307
						CHANNELS 3 Zrotation Yrotation Xrotation
						JOINT RightForeArm
						{
							OFFSET -25.374195 -1.332924 -2.140099
							CHANNELS 3 Zrotation Yrotation Xrotation
							JOINT RightHand
							{
								OFFSET -25.529810 0.777228 -0.555919
								CHANNELS 3 Zrotation Yrotation Xrotation
								End Site
								{
									OFFSET 0.000000 0.000000 0.000000
								}
							}
						}
					}
				}
			}
		}
	}
}
MOTION
Frames: 9
Frame Time: 0.033333
14.639283 -23.824121 90.320923 -109.529019 4.186113 86.304938 15.507090 6.335590 -7.777467 -6.671937 2.113844 29.623585 1.068573 11.990987 -28.521776 nan nan nan -13.638064 -11.867549 -10.917931 3.367630 -12.823776 18.425091 4.416970 -6.192338 -6.613475 nan nan nan -7.812427 3.966875 3.371118 9.454713 -5.554793 15.245086 2.798268 -0.471788 -6.082690 5.952392 -20.053207 17.343630 8.908259 -23.360260 6.970547 -12.792355 -5.740296 5.117694 -65.802697 -45.383956 31.606819 162.874859 -71.382115 -132.793850 -6.320168 -16.148392 1.858619 18.294428 1.248604 -1.447568 43.786023 12.484642 -4.142218 -68.861965 42.920516 -53.383738 8.188438 6.083392 -13.985273 
14.638493 -23.765554 90.342102 -109.551157 4.240723 86.305976 15.639183 6.455769 -7.768617 -6.611844 2.245976 29.700424 0.934313 11.568982 -28.615693 nan nan nan -13.568146 -11.672548 -10.882262 3.313545 -13.041125 18.383501 4.482176 -5.883216 -6.600629 nan nan nan -7.909533 4.051290 3.311010 9.559408 -5.596743 15.438655 2.937968 -0.489508 -6.423444 5.846833 -19.758845 17.674970 9.048113 -23.708946 6.794289 -12.810614 -5.894330 5.254694 -66.500276 -45.195527 31.835281 160.790174 -70.823345 -132.139826 -9.993422 -18.711214 -1.727974 18.243030 1.376161 -1.451290 43.827978 12.285506 -4.212868 -69.161737 42.717084 -53.400173 9.768166 6.733211 -13.932089 
14.633750 -23.757215 90.344795 -109.550776 4.255562 86.354363 15.648712 6.471504 -7.826883 -6.603140 2.257880 29.744380 0.978134 11.563346 -28.652128 nan nan nan -13.519831 -11.619647 -10.939541 3.276087 -12.996706 18.382956 4.504546 -5.893556 -6.496798 nan nan nan -7.915825 4.000463 3.256418 9.576632 -5.620831 15.443929 2.939082 -0.495486 -6.497490 5.830472 -19.717783 17.710552 8.980727 -23.691697 6.864699 -12.841716 -5.883013 5.230151 -66.566625 -45.114109 31.876523 160.833850 -70.899707 -132.051382 -9.617728 -18.669955 -1.689696 18.185015 1.355905 -1.439755 43.895588 12.351264 -4.169432 -69.201069 42.708123 -53.250053 9.152618 6.731652 -13.771575 
14.626325 -23.758474 90.341499 -109.558856 4.267275 86.374387 15.662264 6.464759 -7.852015 -6.605652 2.261236 29.776181 1.015361 11.572853 -28.687615 nan nan nan -13.494789 -11.625111 -10.963762 3.270491 -12.994476 18.382169 4.498467 -5.928487 -6.448250 nan nan nan -7.909706 3.977569 3.212935 9.571592 -5.634179 15.420437 2.937780 -0.485060 -6.449807 5.814001 -19.758299 17.699666 9.002880 -23.626949 6.856571 -12.978975 -5.916943 5.201066 -66.503475 -45.094695 31.848178 160.820410 -70.874488 -132.038290 -9.733525 -18.476488 -1.598321 18.213567 1.373998 -1.470724 43.848970 12.376101 -4.187430 -69.238908 42.710288 -53.119430 9.292354 6.564977 -13.456270 
14.625558 -23.752613 90.349403 -109.647264 4.258083 86.322912 15.667314 6.489143 -7.755617 -6.654401 2.277101 29.762966 1.097810 11.564832 -28.746233 nan nan nan -13.489596 -11.639672 -10.967375 3.256181 -13.051566 18.368732 4.542405 -5.990389 -6.480275 nan nan nan -7.923392 3.984341 3.210783 9.540491 -5.626928 15.484190 2.932042 -0.445993 -6.468478 5.829054 -19.791789 17.682767 8.962468 -23.554016 6.913261 -13.155645 -5.960153 5.169449 -66.428444 -45.065098 31.858053 160.633727 -70.831337 -131.960596 -10.071659 -18.127502 -1.531202 18.310476 1.496719 -1.453146 43.798171 12.398774 -4.144075 -69.389114 42.600236 -53.165481 9.768832 6.455255 -13.213247 
14.601999 -23.705614 90.354515 -109.772298 4.154179 86.171545 15.631914 6.604259 -7.515610 -6.638439 2.041715 29.748178 1.295997 11.105532 -28.474402 nan nan nan -13.512139 -11.839420 -10.879696 3.080172 -14.102344 18.231130 4.656901 -5.851004 -7.240671 nan nan nan -8.233888 4.141359 3.301766 9.584529 -5.474445 15.874807 3.126623 -0.300479 -6.989988 5.562684 -19.767403 18.081844 9.471522 -23.839885 6.528971 -13.023064 -5.363926 5.394277 -68.036493 -45.444690 33.478549 158.044067 -70.979003 -130.351579 -11.598911 -18.409487 -0.653702 18.392107 1.135534 -1.200130 43.870156 12.827454 -4.269273 -69.876750 42.245079 -53.271124 11.460104 6.998029 -11.570139 
14.602024 -23.724262 90.356476 -109.860229 4.181853 86.187161 15.629516 6.623456 -7.472879 -6.647679 1.987802 29.696925 1.298389 11.175983 -28.415385 nan nan nan -13.486024 -11.853387 -11.025817 3.059968 -14.104624 18.459204 4.540871 -5.733879 -7.443078 nan nan nan -8.182569 4.122208 3.367219 9.555321 -5.437663 15.838369 3.122281 -0.258894 -7.104518 5.600699 -19.767127 18.133069 9.407853 -23.901921 6.482482 -12.940640 -5.344801 5.382842 -68.145672 -45.398097 33.540760 157.997200 -71.013653 -130.242978 -11.395862 -18.509006 -0.570441 18.322615 1.214233 -1.074383 43.936637 12.855281 -4.310541 -70.018597 42.172268 -53.187527 11.378358 7.145912 -11.387605 
14.608773 -23.726555 90.344704 -109.914237 4.228986 86.270805 15.686145 6.597153 -7.524956 -6.644501 2.034574 29.714672 1.167307 11.217669 -28.446396 nan nan nan -13.408092 -11.846715 -11.202382 3.055834 -14.112152 18.663507 4.350421 -5.621382 -7.446174 nan nan nan -8.127815 4.083603 3.289545 9.543320 -5.421223 15.750256 3.091779 -0.257197 -7.027436 5.719599 -19.659022 18.082813 9.367542 -24.022723 6.399501 -12.777402 -5.270053 5.308394 -68.407823 -45.377083 33.620648 158.032875 -71.084309 -130.182103 -11.351884 -18.674162 -0.516484 18.215185 1.240816 -1.028238 44.054885 12.911994 -4.327037 -69.969183 42.203089 -52.985665 11.468970 7.148483 -11.564257 
14.614166 -23.730768 90.338104 -109.964890 4.252517 86.324540 15.709942 6.575042 -7.573757 -6.633074 2.093455 29.745276 1.076338 11.256430 -28.470137 nan nan nan -13.336596 -11.792659 -11.298921 3.059263 -14.031799 18.688227 4.271469 -5.594277 -7.303753 nan nan nan -8.097598 4.080361 3.258135 9.545714 -5.411580 15.656842 3.069710 -0.274022 -6.972836 5.711986 -19.612701 18.093590 9.422051 -24.046091 6.338111 -12.719959 -5.240696 5.247040 -68.496513 -45.326099 33.672914 157.945585 -71.116118 -130.053793 -11.300874 -18.802534 -0.635360 18.166517 1.216782 -1.046411 44.094219 12.962696 -4.255416 -69.890868 42.257384 -52.799138 11.330518 7.127708 -11.746800 
